<svg xmlns="http://www.w3.org/2000/svg" width="12.001" height="11.456" viewBox="0 0 12.001 11.456"><defs><style>.a{fill:#808d93;}</style></defs><path class="a" d="M11.91,11.274v.546H2.091v-.546l1.091-1.091V6.91A3.813,3.813,0,0,1,5.91,3.249V3.091a1.091,1.091,0,0,1,2.182,0v.158a3.813,3.813,0,0,1,2.728,3.66v3.273l1.091,1.091M8.092,12.365a1.091,1.091,0,0,1-2.182,0m5.319-9.716-.775.775A4.9,4.9,0,0,1,11.91,6.91H13a5.979,5.979,0,0,0-1.773-4.26M1,6.91H2.091A4.9,4.9,0,0,1,3.548,3.424l-.775-.775A5.979,5.979,0,0,0,1,6.91Z" transform="translate(-1 -2)"/></svg>